<svg xmlns="http://www.w3.org/2000/svg" width="175" height="87" viewBox="0 0 175 87" fill="none"><g clip-path="url(#clip0_255_245)"><path d="M90.1512 2.65344V21.8356H77.3762V2.65344H90.1512ZM77.3762 39.8081H90.1512V58.9903H77.3762V39.8081ZM92.7412 24.4256V2.75844H98.4046C104.396 2.75844 109.626 3.96594 114.133 6.36781C118.621 8.785 122.091 12.1166 124.561 16.3647C127.013 20.6281 128.255 25.445 128.255 30.8503C128.255 36.2556 127.013 41.0703 124.561 45.3359C122.091 49.5841 118.621 52.9156 114.133 55.3153C109.626 57.7325 104.396 58.9247 98.4046 58.9247H92.7412V37.2225H59.1083V58.9925H46.3333V37.2225H43.7433V61.6525H61.6983V39.8125H74.819V61.6525H98.5927C104.98 61.6525 110.661 60.34 115.616 57.6997C120.571 55.0572 124.421 51.3975 127.148 46.7359C129.876 42.0744 131.241 36.7741 131.241 30.8525C131.241 24.9309 129.878 19.6306 127.148 14.9691C124.421 10.29 120.571 6.64781 115.616 4.00531C110.663 1.35844 104.982 0.030625 98.5949 0.030625L74.8212 0V21.8356H61.7005V0H43.7455V24.4256H46.3355V2.65344H59.1105V24.4256H92.7433H92.7412Z" fill="#f3efe4"></path><path d="M9.93125 74.605V86.155H8.28187V81.0078H1.64937V86.155H0V74.605H1.64937V79.5706H8.28187V74.605H9.93125Z" fill="#f3efe4"></path><path d="M16.7737 85.4043C15.8615 84.9055 15.144 84.2142 14.6234 83.3349C14.1028 82.4533 13.8425 81.4711 13.8425 80.3861C13.8425 79.3011 14.1028 78.3189 14.6234 77.4374C15.144 76.5558 15.8615 75.8668 16.7737 75.368C17.6859 74.8693 18.7118 74.6199 19.8515 74.6199C20.9912 74.6199 21.9997 74.8693 22.9118 75.368C23.824 75.8668 24.5393 76.5536 25.0534 77.4308C25.5697 78.3058 25.8256 79.2924 25.8256 80.3861C25.8256 81.4799 25.5675 82.4664 25.0534 83.3414C24.5372 84.2164 23.824 84.9033 22.9118 85.4043C21.9997 85.903 20.9781 86.1524 19.8515 86.1524C18.725 86.1524 17.6881 85.903 16.7737 85.4043ZM22.0806 84.1552C22.7412 83.7789 23.2618 83.2605 23.6425 82.5999C24.0231 81.9393 24.2134 81.2021 24.2134 80.3839C24.2134 79.5658 24.0231 78.8286 23.6425 78.168C23.2618 77.5074 22.7412 76.9889 22.0806 76.6127C21.42 76.2364 20.6762 76.0483 19.8493 76.0483C19.0225 76.0483 18.2722 76.2364 17.6028 76.6127C16.9312 76.9889 16.4062 77.5074 16.0234 78.168C15.6428 78.8286 15.4525 79.568 15.4525 80.3839C15.4525 81.1999 15.6428 81.9393 16.0234 82.5999C16.404 83.2605 16.9312 83.7789 17.6028 84.1552C18.2743 84.5314 19.0225 84.7196 19.8493 84.7196C20.6762 84.7196 21.42 84.5314 22.0806 84.1552Z" fill="#f3efe4"></path><path d="M37.4303 86.1552L34.9387 82.6071C34.6303 82.629 34.3897 82.6399 34.2125 82.6399H31.3578V86.1552H29.7084V74.6052H34.2125C35.7087 74.6052 36.8856 74.9618 37.7431 75.6771C38.6006 76.3924 39.0294 77.3768 39.0294 78.6302C39.0294 79.5205 38.8084 80.2796 38.3687 80.9074C37.9291 81.5352 37.3012 81.9902 36.4875 82.2768L39.2262 86.153H37.4281L37.4303 86.1552ZM36.5553 80.5618C37.1044 80.1112 37.38 79.468 37.38 78.6302C37.38 77.7924 37.1044 77.1537 36.5553 76.7074C36.0062 76.2612 35.2078 76.0402 34.1622 76.0402H31.3578V81.2377H34.1622C35.2078 81.2377 36.0041 81.0124 36.5553 80.5618Z" fill="#f3efe4"></path><path d="M43.761 74.6052H45.4104V86.1552H43.761V74.6052Z" fill="#f3efe4"></path><path d="M59.8412 84.7202V86.1552H50.1899V85.033L57.4503 76.0402H50.3059V74.6052H59.6268V75.7274L52.4015 84.7202H59.8434H59.8412Z" fill="#f3efe4"></path><path d="M65.7169 85.4049C64.8025 84.904 64.085 84.2149 63.5644 83.3312C63.0437 82.4496 62.7812 81.4652 62.7812 80.3802C62.7812 79.2952 63.0416 78.3109 63.5644 77.4293C64.085 76.5477 64.8025 75.8565 65.7169 75.3555C66.6313 74.8546 67.6572 74.6052 68.7969 74.6052C69.9366 74.6052 70.9472 74.8546 71.8616 75.3555C72.7759 75.8565 73.4913 76.5434 74.0075 77.4205C74.5238 78.2977 74.7819 79.2843 74.7819 80.3802C74.7819 81.4762 74.5238 82.4649 74.0075 83.3399C73.4913 84.2171 72.7759 84.904 71.8616 85.4049C70.9472 85.9059 69.9256 86.1552 68.7969 86.1552C67.6681 86.1552 66.6291 85.9059 65.7169 85.4049ZM71.0325 84.1559C71.6931 83.7796 72.2159 83.2612 72.5966 82.5984C72.9772 81.9377 73.1697 81.1984 73.1697 80.3802C73.1697 79.5621 72.9794 78.8227 72.5966 78.1621C72.2137 77.5015 71.6931 76.983 71.0325 76.6046C70.3719 76.2284 69.6259 76.0402 68.7991 76.0402C67.9722 76.0402 67.2197 76.2284 66.5481 76.6046C65.8766 76.9809 65.3494 77.4993 64.9666 78.1621C64.5837 78.8227 64.3934 79.5621 64.3934 80.3802C64.3934 81.1984 64.5837 81.9377 64.9666 82.5984C65.3472 83.259 65.8744 83.7796 66.5481 84.1559C67.2197 84.5321 67.97 84.7202 68.7991 84.7202C69.6281 84.7202 70.3719 84.5321 71.0325 84.1559Z" fill="#f3efe4"></path><path d="M88.7032 74.6052V86.1552H87.3491L80.4191 77.543V86.1552H78.7697V74.6052H80.1216L87.0516 83.2174V74.6052H88.701H88.7032Z" fill="#f3efe4"></path><path d="M99.9643 74.6042H104.831C106.052 74.6042 107.135 74.847 108.082 75.3305C109.027 75.8139 109.762 76.4942 110.285 77.367C110.808 78.242 111.068 79.2461 111.068 80.377C111.068 81.508 110.808 82.5142 110.285 83.387C109.762 84.262 109.027 84.9402 108.082 85.4236C107.135 85.907 106.052 86.1499 104.831 86.1499H99.9643V74.5999V74.6042ZM104.733 84.717C105.667 84.717 106.49 84.5355 107.201 84.1724C107.909 83.8092 108.456 83.3017 108.841 82.6455C109.226 81.9914 109.419 81.2345 109.419 80.377C109.419 79.5195 109.226 78.7627 108.841 78.1086C108.456 77.4545 107.909 76.9449 107.201 76.5817C106.492 76.2186 105.669 76.037 104.733 76.037H101.616V84.7149H104.733V84.717Z" fill="#f3efe4"></path><path d="M123.187 84.7197V86.1547H114.806V74.6047H122.957V76.0397H116.456V79.5879H122.246V80.99H116.456V84.7176H123.187V84.7197Z" fill="#f3efe4"></path><path d="M137.441 74.6047V86.1547H136.089L129.159 77.5426V86.1547H127.509V74.6047H128.861L135.791 83.2169V74.6047H137.441Z" fill="#f3efe4"></path><path d="M144.847 76.0397H140.888V74.6047H150.441V76.0397H146.481V86.1526H144.847V76.0397Z" fill="#f3efe4"></path><path d="M160.67 83.2672H154.531L153.261 86.1547H151.561L156.791 74.6047H158.425L163.671 86.1547H161.938L160.667 83.2672H160.67ZM160.092 81.9482L157.601 76.2891L155.109 81.9482H160.092Z" fill="#f3efe4"></path><path d="M167.096 74.6037H168.746V84.7166H175V86.1516H167.096V74.6016V74.6037Z" fill="#f3efe4"></path></g><defs><clipPath id="clip0_255_245"><rect width="175" height="86.1547" fill="white"></rect></clipPath></defs></svg>